<?xml version="1.0" encoding="UTF-8"?>
<svg width="128px" height="40px" viewBox="0 0 128 40" version="1.1" xmlns="http://www.w3.org/2000/svg" xmlns:xlink="http://www.w3.org/1999/xlink">
    <!-- Generator: Sketch 62 (91390) - https://sketch.com -->
    <title>logo3</title>
    <desc>Created with Sketch.</desc>
    <g id="logo3" stroke="none" stroke-width="1" fill="none" fill-rule="evenodd">
        <g id="logo">
            <rect id="Rectangle" x="0" y="0" width="128" height="40"></rect>
            <path d="M101.833055,29.8847534 C101.833055,35.3947225 97.3663421,39.861435 91.8563729,39.861435 L91.8563729,35.4273543 C94.9174669,35.4273543 97.3989738,32.9458473 97.3989738,29.8847534 L101.833055,29.8847534 Z M91.8563729,9.93139013 C97.3663421,9.93139013 101.833055,14.3981026 101.833055,19.9080717 C101.833055,25.4180409 97.3663421,29.8847534 91.8563729,29.8847534 C86.3464038,29.8847534 81.8796913,25.4180409 81.8796913,19.9080717 C81.8796913,14.3981026 86.3464038,9.93139013 91.8563729,9.93139013 Z M91.8563729,14.3654709 C88.795279,14.3654709 86.313772,16.8469778 86.313772,19.9080717 C86.313772,22.9691657 88.795279,25.4506726 91.8563729,25.4506726 C94.9174669,25.4506726 97.3989738,22.9691657 97.3989738,19.9080717 C97.3989738,16.8469778 94.9174669,14.3654709 91.8563729,14.3654709 Z" id="Combined-Shape" fill="#15C4B6"></path>
            <path d="M123.449198,29.8847534 C123.449198,35.3947225 118.982486,39.861435 113.472516,39.861435 L113.472516,35.4273543 C116.53361,35.4273543 119.015117,32.9458473 119.015117,29.8847534 L123.449198,29.8847534 Z M113.472516,9.93139013 C118.982486,9.93139013 123.449198,14.3981026 123.449198,19.9080717 C123.449198,25.4180409 118.982486,29.8847534 113.472516,29.8847534 C107.962547,29.8847534 103.495835,25.4180409 103.495835,19.9080717 C103.495835,14.3981026 107.962547,9.93139013 113.472516,9.93139013 Z M113.472516,14.3654709 C110.411422,14.3654709 107.929916,16.8469778 107.929916,19.9080717 C107.929916,22.9691657 110.411422,25.4506726 113.472516,25.4506726 C116.53361,25.4506726 119.015117,22.9691657 119.015117,19.9080717 C119.015117,16.8469778 116.53361,14.3654709 113.472516,14.3654709 Z" id="Combined-Shape" fill="#15C4B6"></path>
            <circle id="Oval" fill="#15C4B6" cx="76.3370904" cy="27.806278" r="2.21704036"></circle>
            <path d="M17.0312608,20.0466368 C17.0312608,25.5566059 12.5645483,30.0233184 7.05457922,30.0233184 C4.50132374,30.0233184 1.94806826,29.0492843 0,27.101216 L3.13536854,23.9658475 C4.21762869,25.0481076 5.63610396,25.5892377 7.05457922,25.5892377 C9.32739925,25.5892377 11.2807012,24.2212182 12.1359873,22.2636771 L0,22.2636771 L0,20.0466368 C0,14.5366677 4.46671251,10.0699552 9.97668161,10.0699552 C12.5299371,10.0699552 15.0831926,11.0439893 17.0312608,12.9920575 L13.8958923,16.1274261 C12.8136321,15.0451659 11.3951569,14.5040359 9.97668161,14.5040359 C7.70386165,14.5040359 5.75055973,15.8720553 4.89527361,17.8295963 L17.0312608,17.8295964 L17.0312608,20.0466368 L17.0312608,20.0466368 Z" id="Path" fill="#FFFFFF"></path>
            <path d="M51.3953864,20.0466368 L51.3953864,30.0233184 L46.9613057,30.0233184 L46.9613057,20.0466368 C46.9613057,14.5366677 51.4280182,10.0699552 56.9379873,10.0699552 L56.9379873,14.5040359 C53.8768933,14.5040359 51.3953864,16.9855428 51.3953864,20.0466368 L51.3953864,20.0466368 Z" id="Path" fill="#FFFFFF"></path>
            <rect id="Rectangle" fill="#FFFFFF" x="40.3101846" y="10.0699552" width="4.43408072" height="19.9533632"></rect>
            <circle id="Oval" fill="#FFFFFF" cx="42.527225" cy="6.19013453" r="2.21704036"></circle>
            <path d="M27.5622025,35.5659193 L23.1281218,40 L23.1281218,20.0466368 L27.5622025,20.0466368 L27.5622025,25.4783656 C27.9203764,25.551071 28.2910924,25.5892377 28.6707227,25.5892377 C31.7318167,25.5892377 34.2133236,23.1077307 34.2133236,20.0466368 C34.2133236,16.9855428 31.7318167,14.5040359 28.6707227,14.5040359 C25.6096288,14.5040359 23.1281218,16.9855428 23.1281218,20.0466368 L18.6940411,20.0466368 C18.6940411,14.5366677 23.1607536,10.0699552 28.6707227,10.0699552 C34.1806918,10.0699552 38.6474043,14.5366677 38.6474043,20.0466368 C38.6474043,25.5566059 34.1806918,30.0233184 28.6707227,30.0233184 C28.2960328,30.0233184 27.9261672,30.002663 27.5622025,29.9624287 L27.5622025,35.5659193 L27.5622025,35.5659193 Z" id="Path" fill="#FFFFFF"></path>
            <path d="M68.5774492,14.5040359 C66.3046292,14.5040359 64.3513273,15.8720553 63.4960412,17.8295964 L73.6588581,17.8295964 C72.8035711,15.8720553 70.8502691,14.5040359 68.5774492,14.5040359 Z M68.5774492,10.0699552 C74.0874183,10.0699552 78.5541308,14.5366677 78.5541308,20.0466368 L78.5541308,22.2636771 L63.4960402,22.2636771 C64.3513273,24.2212183 66.3046292,25.5892377 68.5774492,25.5892377 L68.5774492,30.0233184 C63.0674801,30.0233184 58.6007676,25.5566059 58.6007676,20.0466368 C58.6007676,14.5366677 63.0674801,10.0699552 68.5774492,10.0699552 Z" id="Shape" fill="#FFFFFF"></path>
            <path d="M63.8838039,7.5328 L64.1954039,6.5904 L66.4450039,6.5904 L66.7642039,7.5328 L68.1246039,7.5328 L66.0878039,2.1216 L64.5602039,2.1216 L62.5690039,7.5328 L63.8838039,7.5328 Z M66.0802039,5.5188 L64.5526039,5.5188 L64.8642039,4.5916 C64.8946039,4.50546667 65.0440705,4.04946667 65.3126039,3.2236 C65.5203372,3.862 65.6723372,4.318 65.7686039,4.5916 L65.7686039,4.5916 L66.0802039,5.5188 Z M72.22832,7.5328 L72.22832,6.3852 L69.75072,6.3852 L69.75072,2.1216 L68.46632,2.1216 L68.46632,7.5328 L72.22832,7.5328 Z M74.0140362,7.5328 L74.0140362,5.7696 L75.1920362,5.7696 C75.8152362,5.7696 76.3041696,5.6062 76.6588362,5.2794 C77.0135029,4.9526 77.1908362,4.508 77.1908362,3.9456 C77.1908362,3.3832 77.0135029,2.9386 76.6588362,2.6118 C76.3041696,2.285 75.8152362,2.1216 75.1920362,2.1216 L75.1920362,2.1216 L72.7296362,2.1216 L72.7296362,7.5328 L74.0140362,7.5328 Z M75.1084362,4.6828 L74.0140362,4.6828 L74.0140362,3.2084 L75.1084362,3.2084 C75.3567029,3.2084 75.5517696,3.27173333 75.6936362,3.3984 C75.8355029,3.52506667 75.9064362,3.70746667 75.9064362,3.9456 C75.9064362,4.18373333 75.8367696,4.36613333 75.6974362,4.4928 C75.5581029,4.61946667 75.3617696,4.6828 75.1084362,4.6828 L75.1084362,4.6828 Z M79.0525524,7.5328 L79.0525524,5.344 L81.2261524,5.344 L81.2261524,7.5328 L82.5105524,7.5328 L82.5105524,2.1216 L81.2261524,2.1216 L81.2261524,4.1888 L79.0525524,4.1888 L79.0525524,2.1216 L77.7681524,2.1216 L77.7681524,7.5328 L79.0525524,7.5328 Z M84.1594686,7.5328 L84.4710686,6.5904 L86.7206686,6.5904 L87.0398686,7.5328 L88.4002686,7.5328 L86.3634686,2.1216 L84.8358686,2.1216 L82.8446686,7.5328 L84.1594686,7.5328 Z M86.3558686,5.5188 L84.8282686,5.5188 L85.1398686,4.5916 C85.1702686,4.50546667 85.3197353,4.04946667 85.5882686,3.2236 C85.7960019,3.862 85.9480019,4.318 86.0442686,4.5916 L86.0442686,4.5916 L86.3558686,5.5188 Z M93.636101,7.5328 L95.528501,2.1216 L94.206101,2.1216 L93.423301,4.5004 C93.240901,5.07293333 93.0610343,5.70626667 92.883701,6.4004 C92.762101,5.90893333 92.5771676,5.2756 92.328901,4.5004 L92.328901,4.5004 L91.538501,2.1216 L90.162901,2.1216 L92.116101,7.5328 L93.636101,7.5328 Z M100.035017,7.5328 L100.035017,6.3852 L97.1926171,6.3852 L97.1926171,5.3288 L99.7842171,5.3288 L99.7842171,4.2496 L97.1926171,4.2496 L97.1926171,3.2692 L100.042617,3.2692 L100.042617,2.1216 L95.9082171,2.1216 L95.9082171,7.5328 L100.035017,7.5328 Z M101.919533,7.5328 L101.919533,5.5416 L102.968333,5.5416 C103.241933,5.5416 103.4408,5.5986 103.564933,5.7126 C103.689067,5.8266 103.7562,6.03306667 103.766333,6.332 L103.766333,6.332 L103.789133,6.94 C103.7942,7.1832 103.837267,7.3808 103.918333,7.5328 L103.918333,7.5328 L105.240733,7.5328 C105.144467,7.38586667 105.0938,7.1908 105.088733,6.9476 L105.088733,6.9476 L105.050733,6.1876 C105.035533,5.84306667 104.973467,5.57706667 104.864533,5.3896 C104.7556,5.20213333 104.5618,5.0628 104.283133,4.9716 C104.8658,4.73853333 105.157133,4.3104 105.157133,3.6872 C105.157133,3.20586667 104.988667,2.8246 104.651733,2.5434 C104.3148,2.2622 103.829667,2.1216 103.196333,2.1216 L103.196333,2.1216 L100.635133,2.1216 L100.635133,7.5328 L101.919533,7.5328 Z M103.051933,4.5764 L101.919533,4.5764 L101.919533,3.1476 L103.029133,3.1476 C103.5662,3.1476 103.834733,3.3832 103.834733,3.8544 C103.834733,4.08746667 103.766333,4.26606667 103.629533,4.3902 C103.492733,4.51433333 103.3002,4.5764 103.051933,4.5764 L103.051933,4.5764 Z M107.87765,7.6544 C108.597116,7.6544 109.159516,7.50746667 109.56485,7.2136 C109.970183,6.91973333 110.17285,6.49666667 110.17285,5.9444 C110.17285,5.48333333 110.02465,5.12233333 109.72825,4.8614 C109.43185,4.60046667 108.95685,4.41173333 108.30325,4.2952 L108.30325,4.2952 L107.84725,4.2116 C107.502716,4.14573333 107.263316,4.06466667 107.12905,3.9684 C106.994783,3.87213333 106.92765,3.7328 106.92765,3.5504 C106.92765,3.1856 107.203783,3.0032 107.75605,3.0032 C108.100583,3.0032 108.35265,3.064 108.51225,3.1856 C108.67185,3.3072 108.75925,3.49973333 108.77445,3.7632 L108.77445,3.7632 L109.99045,3.7632 C109.965116,3.19573333 109.76245,2.76 109.38245,2.456 C109.00245,2.152 108.452716,2 107.73325,2 C107.059383,2 106.538783,2.1444 106.17145,2.4332 C105.804116,2.722 105.62045,3.11213333 105.62045,3.6036 C105.62045,4.5308 106.223383,5.09573333 107.42925,5.2984 L107.42925,5.2984 L107.87005,5.382 C108.25005,5.45293333 108.507183,5.53273333 108.64145,5.6214 C108.775716,5.71006667 108.84285,5.8456 108.84285,6.028 C108.84285,6.44346667 108.536316,6.6512 107.92325,6.6512 C107.52805,6.6512 107.23545,6.58533333 107.04545,6.4536 C106.85545,6.32186667 106.757916,6.0888 106.75285,5.7544 L106.75285,5.7544 L105.50645,5.7544 C105.511516,6.35226667 105.71925,6.8184 106.12965,7.1528 C106.54005,7.4872 107.122716,7.6544 107.87765,7.6544 Z M111.988966,7.5328 L111.988966,2.1216 L110.704566,2.1216 L110.704566,7.5328 L111.988966,7.5328 Z M115.347882,7.6544 C116.173749,7.6544 116.842549,7.396 117.354282,6.8792 C117.866015,6.35733333 118.121882,5.67333333 118.121882,4.8272 C118.121882,3.98106667 117.866015,3.29706667 117.354282,2.7752 C116.842549,2.2584 116.173749,2 115.347882,2 C114.522015,2 113.853215,2.2584 113.341482,2.7752 C112.829749,3.29706667 112.573882,3.98106667 112.573882,4.8272 C112.573882,5.67333333 112.829749,6.35733333 113.341482,6.8792 C113.853215,7.396 114.522015,7.6544 115.347882,7.6544 Z M115.347882,6.5372 C114.912149,6.5372 114.565082,6.3852 114.306682,6.0812 C114.043215,5.78226667 113.911482,5.36426667 113.911482,4.8272 C113.911482,4.29013333 114.043215,3.87213333 114.306682,3.5732 C114.565082,3.2692 114.912149,3.1172 115.347882,3.1172 C115.778549,3.1172 116.128149,3.2692 116.396682,3.5732 C116.660149,3.87213333 116.791882,4.29013333 116.791882,4.8272 C116.791882,5.36426667 116.660149,5.78226667 116.396682,6.0812 C116.128149,6.3852 115.778549,6.5372 115.347882,6.5372 Z M119.930398,7.5328 L119.929923,6.04213125 C119.927706,5.22141042 119.917731,4.50736667 119.899998,3.9 C120.057065,4.20906667 120.338265,4.70053333 120.743598,5.3744 L120.743598,5.3744 L122.065998,7.5328 L123.449198,7.5328 L123.449198,2.1216 L122.225598,2.1216 L122.225598,3.254 C122.225598,4.2268 122.235731,5.06533333 122.255998,5.7696 C122.073598,5.4048 121.792398,4.90826667 121.412398,4.28 L121.412398,4.28 L120.089998,2.1216 L118.706798,2.1216 L118.706798,7.5328 L119.930398,7.5328 Z" id="ALPHAVERSION" fill="#15C4B6" fill-rule="nonzero"></path>
        </g>
    </g>
</svg>